<svg xmlns="http://www.w3.org/2000/svg" width="339" height="91" viewBox="0 0 339 91" fill="none"><mask id="mask0_1384_229" style="mask-type:luminance" maskUnits="userSpaceOnUse" x="0" y="1" width="91" height="90"><path d="M90.7998 1H0.799805V91H90.7998V1Z" fill="white"></path></mask><g mask="url(#mask0_1384_229)"><path d="M90.2998 45.8C90.2998 21 70.2998 1 45.5998 1C20.8998 1 0.799805 21 0.799805 45.8C0.799805 70.3 20.3998 90.2 44.7998 90.6H90.2998L76.2998 78.3C78.4998 76.2 80.4998 73.9 82.2998 71.4C84.0998 68.9 85.4998 66.3 86.6998 63.5C87.8998 60.7 88.7998 57.8 89.3998 54.8C89.9998 51.8 90.2998 48.8 90.2998 45.8Z" fill="#006EFF"></path></g><path d="M92.8445 54.612H122.045V62.812H82.6445V15.312H92.8445V54.612Z" fill="black"></path><path d="M158.879 45.4121L158.779 47.4121H131.279C131.379 49.4121 131.779 51.1121 132.679 52.4121C133.479 53.7121 134.679 54.7121 136.079 55.4121C137.579 56.1121 139.179 56.4121 141.079 56.4121C143.379 56.4121 145.179 56.0121 146.579 55.1121C147.979 54.2121 148.979 52.9121 149.579 51.2121H158.579C157.779 53.9121 156.679 56.1121 154.979 57.9121C153.379 59.7121 151.379 61.1121 148.979 62.0121C146.579 62.9121 143.979 63.4121 140.979 63.4121C137.979 63.4121 135.279 63.0121 132.879 62.2121C130.679 61.5121 128.679 60.3121 126.979 58.8121C125.279 57.3121 124.079 55.5121 123.179 53.3121C122.279 51.1121 121.879 48.7121 121.879 45.9121C121.879 43.1121 122.279 40.7121 123.179 38.5121C124.079 36.3121 125.379 34.5121 127.079 33.0121C128.779 31.5121 130.779 30.3121 133.079 29.6121C135.379 28.8121 138.079 28.4121 140.979 28.4121C143.679 28.4121 146.079 28.7121 148.279 29.4121C150.479 30.1121 152.379 31.1121 153.979 32.5121C155.579 33.9121 156.779 35.7121 157.679 37.8121C158.479 39.9121 158.879 42.5121 158.879 45.4121ZM140.979 34.8121C139.079 34.8121 137.479 35.1121 136.079 35.6121C134.679 36.1121 133.679 37.0121 132.879 38.2121C132.079 39.4121 131.579 40.9121 131.379 42.7121H149.479C149.479 40.9121 149.079 39.4121 148.379 38.3121C147.679 37.1121 146.679 36.2121 145.479 35.7121C144.179 35.1121 142.679 34.8121 140.979 34.8121Z" fill="black"></path><path d="M187.333 57.0121C189.133 57.0121 190.833 57.2121 192.333 57.5121C193.833 57.8121 195.133 58.4121 196.233 59.1121C197.333 59.8121 198.133 60.8121 198.733 61.9121C199.333 63.0121 199.633 64.4121 199.633 66.0121C199.633 67.7121 199.233 69.2121 198.533 70.5121C197.733 71.8121 196.733 72.9121 195.333 73.7121C193.933 74.6121 192.333 75.3121 190.333 75.8121C188.433 76.3121 186.333 76.7121 183.933 77.0121C181.633 77.2121 179.133 77.4121 176.533 77.4121C173.933 77.4121 171.633 77.3121 169.633 77.0121C167.633 76.7121 165.833 76.3121 164.433 75.6121C163.033 75.0121 161.833 74.2121 161.133 73.1121C160.333 72.1121 160.033 70.8121 160.033 69.3121C160.033 67.9121 160.333 66.7121 161.033 65.5121C161.733 64.3121 162.833 63.2121 164.233 62.0121C163.133 61.3121 162.233 60.5121 161.533 59.5121C160.833 58.5121 160.533 57.3121 160.533 55.9121C160.533 54.8121 160.733 53.9121 161.233 53.0121C161.733 52.1121 162.333 51.4121 163.133 50.7121C163.933 50.0121 164.833 49.5121 165.933 49.1121C164.433 48.1121 163.133 46.9121 162.333 45.4121C161.433 43.9121 161.033 42.2121 161.033 40.2121C161.033 38.6121 161.333 37.2121 161.833 35.9121C162.433 34.6121 163.233 33.5121 164.233 32.5121C165.233 31.5121 166.433 30.7121 167.833 30.1121C169.233 29.4121 170.733 29.0121 172.433 28.6121C174.133 28.3121 175.833 28.1121 177.633 28.1121C179.433 28.1121 181.033 28.3121 182.733 28.6121C184.333 28.9121 185.833 29.4121 187.233 30.1121C187.533 29.0121 188.133 28.0121 188.833 27.1121C189.633 26.2121 190.633 25.5121 191.833 25.1121C193.033 24.6121 194.433 24.4121 196.033 24.4121H198.133V30.5121H196.533C195.933 30.5121 195.233 30.5121 194.633 30.6121C194.033 30.7121 193.433 30.8121 192.833 30.9121C192.233 31.0121 191.733 31.2121 191.333 31.4121C190.933 31.6121 190.533 31.9121 190.333 32.3121C191.633 33.3121 192.633 34.5121 193.433 35.9121C194.233 37.3121 194.533 39.0121 194.533 40.8121C194.533 42.4121 194.233 43.8121 193.733 45.1121C193.133 46.3121 192.433 47.4121 191.333 48.2121C190.333 49.1121 189.133 49.8121 187.733 50.3121C186.333 50.9121 184.933 51.3121 183.233 51.5121C181.633 51.7121 179.933 51.9121 178.233 51.9121C175.033 51.9121 172.233 51.5121 169.733 50.7121C169.233 51.2121 168.933 51.7121 168.633 52.1121C168.433 52.5121 168.333 53.0121 168.333 53.5121C168.333 54.2121 168.533 54.8121 168.833 55.3121C169.233 55.8121 169.833 56.1121 170.633 56.4121C171.433 56.6121 172.533 56.8121 174.033 56.8121H187.333V57.0121ZM177.933 34.6121C176.433 34.6121 175.133 34.8121 174.033 35.4121C172.933 35.9121 172.133 36.6121 171.633 37.5121C171.133 38.4121 170.833 39.5121 170.833 40.8121C170.833 42.8121 171.433 44.3121 172.633 45.3121C173.833 46.3121 175.633 46.8121 177.933 46.8121C179.433 46.8121 180.633 46.6121 181.733 46.1121C182.833 45.6121 183.633 44.9121 184.133 44.0121C184.733 43.1121 185.033 42.0121 185.033 40.7121C185.033 39.4121 184.733 38.3121 184.133 37.3121C183.533 36.4121 182.733 35.7121 181.733 35.2121C180.633 34.8121 179.433 34.6121 177.933 34.6121ZM177.033 71.8121C178.933 71.8121 180.733 71.7121 182.333 71.6121C183.933 71.4121 185.233 71.2121 186.433 70.8121C187.633 70.5121 188.433 70.0121 189.033 69.4121C189.633 68.8121 189.933 68.1121 189.933 67.3121C189.933 66.8121 189.833 66.4121 189.533 66.0121C189.333 65.6121 188.833 65.2121 188.333 65.0121C187.733 64.7121 186.933 64.5121 185.933 64.3121C184.933 64.2121 183.533 64.1121 181.933 64.1121H172.733C171.833 64.1121 170.933 64.0121 170.033 64.0121C169.333 64.7121 168.833 65.4121 168.533 66.1121C168.133 66.8121 168.033 67.5121 168.033 68.2121C168.033 68.9121 168.233 69.5121 168.733 70.0121C169.133 70.5121 169.833 70.8121 170.633 71.1121C171.433 71.4121 172.433 71.6121 173.533 71.7121C174.433 71.7121 175.633 71.8121 177.033 71.8121Z" fill="black"></path><path d="M235.633 56.5121C236.333 56.5121 237.133 56.4121 238.133 56.1121V62.8121C237.033 63.0121 236.033 63.1121 235.033 63.2121C234.133 63.3121 233.233 63.3121 232.433 63.3121C230.933 63.3121 229.733 63.1121 228.733 62.8121C227.733 62.5121 226.933 62.0121 226.233 61.4121C225.633 60.8121 225.133 60.0121 224.733 59.1121C224.333 58.2121 224.133 57.2121 223.933 56.0121C223.433 57.0121 222.733 57.9121 221.933 58.8121C221.133 59.7121 220.233 60.5121 219.133 61.2121C218.033 61.9121 216.833 62.4121 215.433 62.8121C214.033 63.2121 212.433 63.4121 210.733 63.4121C209.533 63.4121 208.333 63.3121 207.133 63.1121C205.933 62.9121 204.833 62.6121 203.833 62.1121C202.833 61.6121 201.933 61.1121 201.133 60.3121C200.333 59.6121 199.733 58.7121 199.333 57.6121C198.933 56.6121 198.733 55.3121 198.733 54.0121C198.733 50.5121 200.233 47.8121 203.133 45.7121C206.033 43.6121 210.433 42.3121 216.033 41.7121C217.033 41.6121 218.133 41.5121 219.233 41.4121C220.333 41.3121 221.433 41.3121 222.633 41.3121V39.4121C222.633 38.5121 222.433 37.7121 222.033 37.0121C221.633 36.4121 221.033 35.8121 220.433 35.5121C219.733 35.1121 219.033 34.8121 218.133 34.6121C217.333 34.4121 216.433 34.3121 215.633 34.3121C214.633 34.3121 213.633 34.4121 212.733 34.6121C211.833 34.8121 211.033 35.1121 210.333 35.6121C209.633 36.0121 209.033 36.6121 208.633 37.3121C208.233 38.0121 208.033 38.8121 208.033 39.8121H199.133C199.333 37.6121 199.933 35.8121 200.833 34.4121C201.733 32.9121 202.933 31.7121 204.433 30.9121C205.933 30.0121 207.633 29.4121 209.633 29.0121C211.633 28.6121 213.833 28.4121 216.133 28.4121C217.433 28.4121 218.733 28.5121 220.033 28.6121C221.333 28.7121 222.533 29.0121 223.733 29.3121C224.933 29.6121 226.033 30.1121 227.033 30.7121C228.033 31.3121 228.933 32.0121 229.633 32.9121C230.433 33.8121 230.933 34.9121 231.433 36.1121C231.833 37.3121 232.033 38.8121 232.033 40.4121V51.0121C232.033 52.0121 232.133 53.0121 232.333 53.8121C232.533 54.6121 232.933 55.2121 233.433 55.7121C233.933 56.3121 234.633 56.5121 235.633 56.5121ZM214.133 58.0121C215.633 58.0121 216.933 57.7121 218.033 57.1121C219.133 56.5121 220.133 55.6121 220.833 54.6121C221.633 53.5121 222.133 52.2121 222.533 50.7121C222.933 49.2121 223.133 47.5121 223.133 45.7121C221.933 45.7121 220.833 45.7121 219.733 45.8121C218.733 45.9121 217.733 46.0121 216.833 46.2121C214.033 46.6121 211.833 47.4121 210.233 48.5121C208.733 49.7121 207.933 51.2121 207.933 53.1121C207.933 54.2121 208.133 55.1121 208.733 55.8121C209.233 56.5121 209.933 57.0121 210.833 57.4121C211.833 57.8121 212.933 58.0121 214.133 58.0121Z" fill="black"></path><path d="M240.085 62.812V15.312H249.885V62.812H240.085Z" fill="black"></path><path d="M258.084 62.8118V52.6118H268.284V62.8118H258.084Z" fill="black"></path><path d="M310.943 56.5117C311.643 56.5117 312.443 56.4117 313.443 56.1117V62.8117C312.343 63.0117 311.343 63.1117 310.343 63.2117C309.443 63.3117 308.543 63.3117 307.743 63.3117C306.243 63.3117 305.043 63.1117 304.043 62.8117C303.043 62.5117 302.243 62.0117 301.543 61.4117C300.943 60.8117 300.443 60.0117 300.043 59.1117C299.643 58.2117 299.443 57.2117 299.243 56.0117C298.743 57.0117 298.043 57.9117 297.243 58.8117C296.543 59.8117 295.543 60.6117 294.543 61.3117C293.443 62.0117 292.243 62.5117 290.843 62.9117C289.443 63.3117 287.843 63.5117 286.143 63.5117C284.943 63.5117 283.743 63.4117 282.543 63.2117C281.343 63.0117 280.243 62.7117 279.243 62.2117C278.243 61.7117 277.343 61.2117 276.543 60.4117C275.743 59.7117 275.143 58.8117 274.743 57.7117C274.343 56.7117 274.143 55.4117 274.143 54.1117C274.143 50.6117 275.643 47.9117 278.543 45.8117C281.443 43.7117 285.843 42.4117 291.443 41.8117C292.443 41.7117 293.543 41.6117 294.643 41.5117C295.743 41.4117 296.843 41.4117 298.043 41.4117V39.5117C298.043 38.6117 297.843 37.8117 297.443 37.1117C297.043 36.5117 296.443 35.9117 295.843 35.6117C295.143 35.2117 294.443 34.9117 293.543 34.7117C292.743 34.5117 291.843 34.4117 291.043 34.4117C290.043 34.4117 289.043 34.5117 288.143 34.7117C287.243 34.9117 286.443 35.2117 285.743 35.7117C285.043 36.1117 284.443 36.7117 284.043 37.4117C283.643 38.1117 283.443 38.9117 283.443 39.9117H274.543C274.743 37.7117 275.343 35.9117 276.243 34.5117C277.143 33.0117 278.343 31.8117 279.843 31.0117C281.343 30.1117 283.043 29.5117 285.043 29.1117C287.043 28.7117 289.243 28.5117 291.543 28.5117C292.843 28.5117 294.143 28.6117 295.443 28.7117C296.743 28.8117 297.943 29.1117 299.143 29.4117C300.343 29.7117 301.443 30.2117 302.443 30.8117C303.443 31.4117 304.343 32.1117 305.043 33.0117C305.843 33.9117 306.343 35.0117 306.843 36.2117C307.243 37.4117 307.443 38.9117 307.443 40.5117V51.1117C307.443 52.1117 307.543 53.1117 307.743 53.9117C307.943 54.7117 308.343 55.3117 308.843 55.8117C309.243 56.3117 310.043 56.5117 310.943 56.5117ZM289.443 58.0117C290.943 58.0117 292.243 57.7117 293.343 57.1117C294.443 56.5117 295.443 55.6117 296.143 54.6117C296.943 53.5117 297.443 52.2117 297.843 50.7117C298.243 49.2117 298.443 47.5117 298.443 45.7117C297.243 45.7117 296.143 45.7117 295.043 45.8117C293.943 45.9117 293.043 46.0117 292.143 46.2117C289.343 46.6117 287.143 47.4117 285.543 48.5117C284.043 49.7117 283.243 51.2117 283.243 53.1117C283.243 54.2117 283.443 55.1117 284.043 55.8117C284.543 56.5117 285.243 57.0117 286.143 57.4117C287.143 57.8117 288.243 58.0117 289.443 58.0117Z" fill="black"></path><path d="M314.395 23.6121V14.4121H326.195V23.6121H314.395ZM315.395 62.8121V29.1121H325.195V62.8121H315.395Z" fill="black"></path><path d="M104.953 82.0923C105.353 82.0923 105.653 82.1923 105.953 82.1923C106.253 82.2923 106.553 82.3923 106.753 82.5923C106.953 82.7923 107.153 82.9923 107.353 83.1923C107.553 83.3923 107.653 83.6923 107.753 83.8923C107.853 84.1923 107.853 84.4923 107.853 84.7923C107.853 85.0923 107.853 85.3923 107.753 85.5923C107.653 85.8923 107.553 86.0923 107.353 86.2923C107.153 86.4923 106.953 86.6923 106.753 86.8923C106.553 87.0923 106.253 87.1923 105.953 87.2923C105.653 87.3923 105.353 87.3923 104.953 87.3923H101.453V90.3923H99.6533V82.0923H104.953ZM104.653 85.9923C104.953 85.9923 105.253 85.9923 105.453 85.8923C105.653 85.7923 105.853 85.5923 105.953 85.3923C106.053 85.1923 106.153 84.9923 106.153 84.6923C106.153 84.4923 106.053 84.1923 105.953 83.9923C105.853 83.7923 105.653 83.6923 105.453 83.4923C105.253 83.3923 104.953 83.2923 104.653 83.2923H101.453V85.8923H104.653V85.9923Z" fill="black"></path><path d="M114.97 90.4921C114.37 90.4921 113.87 90.3921 113.37 90.2921C112.87 90.1921 112.47 89.9921 112.07 89.7921C111.67 89.5921 111.37 89.2921 111.07 88.8921C110.77 88.5921 110.57 88.1921 110.47 87.6921C110.37 87.1921 110.27 86.6921 110.27 86.1921C110.27 85.6921 110.37 85.1921 110.47 84.6921C110.67 84.1921 110.87 83.7921 111.07 83.4921C111.37 83.1921 111.67 82.8921 112.07 82.5921C112.47 82.3921 112.87 82.1921 113.37 82.0921C113.87 81.9921 114.37 81.8921 114.97 81.8921C115.57 81.8921 116.07 81.9921 116.57 82.0921C117.07 82.1921 117.47 82.3921 117.87 82.5921C118.27 82.7921 118.57 83.0921 118.87 83.4921C119.17 83.7921 119.37 84.2921 119.57 84.6921C119.77 85.0921 119.77 85.5921 119.77 86.1921C119.77 86.7921 119.67 87.1921 119.57 87.6921C119.37 88.0921 119.17 88.4921 118.87 88.8921C118.57 89.1921 118.27 89.4921 117.87 89.7921C117.47 89.9921 117.07 90.1921 116.57 90.2921C116.07 90.4921 115.47 90.4921 114.97 90.4921ZM114.97 89.0921C115.37 89.0921 115.67 89.0921 115.97 88.9921C116.27 88.8921 116.57 88.7921 116.87 88.5921C117.17 88.3921 117.37 88.2921 117.57 87.9921C117.77 87.7921 117.87 87.4921 117.97 87.1921C118.07 86.8921 118.17 86.4921 118.17 86.1921C118.17 85.7921 118.07 85.4921 117.97 85.1921C117.87 84.8921 117.77 84.5921 117.57 84.3921C117.37 84.1921 117.17 83.9921 116.87 83.7921C116.67 83.5921 116.37 83.4921 115.97 83.4921C115.67 83.3921 115.27 83.3921 114.97 83.3921C114.47 83.3921 114.07 83.4921 113.77 83.5921C113.37 83.6921 113.07 83.8921 112.77 84.0921C112.47 84.2921 112.27 84.5921 112.17 84.9921C111.97 85.2921 111.97 85.7921 111.97 86.1921C111.97 86.6921 112.07 87.0921 112.17 87.4921C112.37 87.8921 112.57 88.1921 112.77 88.3921C113.07 88.5921 113.37 88.7921 113.77 88.8921C114.07 89.0921 114.47 89.0921 114.97 89.0921Z" fill="black"></path><path d="M123.817 90.3923L122.017 82.0923H123.917L125.217 88.9923H125.317L126.617 82.0923H129.317L130.617 88.9923H130.717L132.017 82.0923H133.917L132.117 90.3923H129.417L128.017 83.4923H127.917L126.517 90.3923H123.817Z" fill="black"></path><path d="M138.435 88.9923H143.735V90.3923H136.635V82.0923H143.535V83.4923H138.535V85.4923H141.535V86.7923H138.435V88.9923Z" fill="black"></path><path d="M146.674 90.3923V82.0923H152.174C152.574 82.0923 152.974 82.0923 153.274 82.1923C153.574 82.2923 153.874 82.3923 154.074 82.4923C154.274 82.5923 154.474 82.7923 154.674 82.9923C154.874 83.1923 154.974 83.3923 154.974 83.5923C155.074 83.7923 155.074 84.0923 155.074 84.2923C155.074 84.5923 155.074 84.8923 154.974 85.0923C154.874 85.2923 154.774 85.4923 154.674 85.6923C154.574 85.8923 154.374 85.9923 154.174 86.0923C153.974 86.1923 153.774 86.2923 153.574 86.2923C153.374 86.3923 153.174 86.3923 152.874 86.3923C153.074 86.4923 153.174 86.5923 153.274 86.6923C153.374 86.7923 153.474 86.8923 153.574 87.0923C153.674 87.2923 153.774 87.3923 153.774 87.5923C153.874 87.7923 153.874 87.8923 153.874 88.0923C153.874 88.2923 153.974 88.4923 153.974 88.6923C153.974 88.8923 154.074 89.0923 154.074 89.1923C154.174 89.3923 154.174 89.5923 154.274 89.6923C154.374 89.8923 154.474 89.9923 154.474 90.1923H152.574C152.474 90.0923 152.374 89.8923 152.374 89.6923C152.274 89.4923 152.274 89.2923 152.274 89.0923C152.274 88.8923 152.174 88.6923 152.174 88.4923C152.174 88.2923 152.074 88.0923 152.074 87.8923C152.074 87.6923 151.974 87.4923 151.874 87.3923C151.774 87.1923 151.674 87.0923 151.574 86.9923C151.474 86.8923 151.374 86.7923 151.174 86.6923C150.974 86.5923 150.774 86.5923 150.574 86.5923H148.374V90.0923H146.674V90.3923ZM148.474 85.5923H151.874C152.174 85.5923 152.474 85.5923 152.774 85.4923C152.974 85.3923 153.174 85.2923 153.274 85.0923C153.374 84.8923 153.374 84.6923 153.374 84.4923C153.374 84.2923 153.274 84.0923 153.274 83.8923C153.174 83.6923 152.974 83.5923 152.774 83.4923C152.574 83.3923 152.274 83.3923 151.874 83.3923H148.474V85.5923Z" fill="black"></path><path d="M159.85 88.9923H165.15V90.3923H158.05V82.0923H164.85V83.4923H159.85V85.4923H162.95V86.7923H159.85V88.9923Z" fill="black"></path><path d="M168.089 90.3923V82.0923H172.289C172.889 82.0923 173.389 82.1923 173.889 82.2923C174.389 82.3923 174.789 82.5923 175.089 82.8923C175.389 83.0923 175.689 83.3923 175.989 83.7923C176.189 84.0923 176.389 84.4923 176.489 84.8923C176.589 85.2923 176.689 85.7923 176.689 86.2923C176.689 86.7923 176.589 87.2923 176.489 87.6923C176.389 88.0923 176.189 88.4923 175.989 88.7923C175.789 89.0923 175.489 89.3923 175.089 89.6923C174.789 89.8923 174.289 90.0923 173.889 90.2923C173.389 90.3923 172.889 90.4923 172.289 90.4923L168.089 90.3923ZM169.889 88.9923H172.289C172.889 88.9923 173.389 88.8923 173.789 88.6923C174.189 88.4923 174.489 88.1923 174.589 87.7923C174.789 87.3923 174.889 86.8923 174.889 86.2923C174.889 85.8923 174.789 85.4923 174.689 85.1923C174.589 84.8923 174.489 84.5923 174.189 84.2923C173.989 84.0923 173.689 83.8923 173.389 83.7923C173.089 83.6923 172.689 83.5923 172.289 83.5923H169.889V88.9923Z" fill="black"></path><path d="M190.983 85.9924C191.283 86.0924 191.583 86.1924 191.783 86.3924C191.983 86.5924 192.183 86.7924 192.283 87.0924C192.383 87.3924 192.483 87.6924 192.483 88.0924C192.483 88.3924 192.383 88.7924 192.283 89.0924C192.183 89.3924 191.983 89.5924 191.783 89.7924C191.583 89.9924 191.283 90.0924 190.883 90.2924C190.483 90.3924 190.083 90.4924 189.483 90.4924H184.183V82.1924H189.083C189.583 82.1924 190.083 82.2924 190.483 82.3924C190.883 82.4924 191.183 82.5924 191.483 82.7924C191.683 82.9924 191.883 83.1924 192.083 83.4924C192.183 83.7924 192.283 84.0924 192.283 84.3924C192.283 84.7924 192.183 85.1924 191.983 85.4924C191.683 85.6924 191.383 85.8924 190.983 85.9924ZM189.083 83.4924H185.883V85.4924H189.283C189.583 85.4924 189.783 85.4924 189.983 85.3924C190.183 85.2924 190.283 85.1924 190.383 85.0924C190.483 84.8924 190.483 84.7924 190.483 84.5924C190.483 84.3924 190.483 84.2924 190.383 84.1924C190.283 84.0924 190.283 83.9924 190.183 83.8924C190.083 83.7924 189.883 83.6924 189.783 83.6924C189.583 83.4924 189.383 83.4924 189.083 83.4924ZM189.083 88.9924C189.383 88.9924 189.683 88.9924 189.883 88.8924C190.083 88.7924 190.283 88.7924 190.383 88.6924C190.483 88.5924 190.583 88.4924 190.583 88.2924C190.683 88.0924 190.683 87.9924 190.683 87.7924C190.683 87.5924 190.683 87.4924 190.583 87.3924C190.583 87.2924 190.483 87.0924 190.383 86.9924C190.283 86.8924 190.083 86.7924 189.883 86.7924C189.683 86.6924 189.483 86.6924 189.083 86.6924H185.883V88.9924H189.083Z" fill="black"></path><path d="M202.388 82.0923L199.388 86.4923V90.4923H197.588V86.4923L194.588 82.0923H196.588L198.488 84.9923L200.488 82.0923H202.388Z" fill="black"></path><path d="M211.233 88.9923H216.333V90.3923H209.433V82.0923H211.233V88.9923Z" fill="black"></path><path d="M220.867 88.9923H226.167V90.3923H219.067V82.0923H225.867V83.4923H220.867V85.4923H223.967V86.7923H220.867V88.9923Z" fill="black"></path><path d="M234.006 86.1921H238.206V90.3921H237.106L236.906 88.9921C236.606 89.4921 236.106 89.8921 235.606 90.0921C235.106 90.2921 234.406 90.4921 233.606 90.4921C233.006 90.4921 232.506 90.3921 232.006 90.2921C231.506 90.1921 231.106 89.9921 230.706 89.7921C230.306 89.5921 230.006 89.2921 229.706 88.8921C229.406 88.5921 229.206 88.1921 229.106 87.6921C229.006 87.1921 228.906 86.6921 228.906 86.1921C228.906 85.6921 229.006 85.1921 229.106 84.6921C229.306 84.1921 229.506 83.7921 229.706 83.4921C230.006 83.1921 230.306 82.8921 230.706 82.5921C231.106 82.3921 231.506 82.1921 232.006 82.0921C232.506 81.9921 233.006 81.8921 233.606 81.8921C234.106 81.8921 234.506 81.9921 235.006 81.9921C235.406 82.0921 235.806 82.1921 236.206 82.3921C236.606 82.5921 236.906 82.7921 237.206 82.9921C237.506 83.1921 237.706 83.4921 237.906 83.8921C238.106 84.1921 238.206 84.5921 238.306 84.9921H236.506C236.406 84.6921 236.306 84.4921 236.106 84.1921C235.906 83.9921 235.706 83.7921 235.406 83.6921C235.206 83.4921 234.906 83.3921 234.606 83.3921C234.306 83.2921 234.006 83.2921 233.606 83.2921C233.206 83.2921 232.906 83.2921 232.606 83.3921C232.306 83.4921 232.006 83.5921 231.706 83.6921C231.506 83.7921 231.206 83.9921 231.006 84.2921C230.806 84.4921 230.706 84.7921 230.606 85.0921C230.506 85.3921 230.506 85.7921 230.506 86.0921C230.506 86.4921 230.506 86.7921 230.606 87.0921C230.706 87.3921 230.806 87.6921 231.006 87.8921C231.206 88.0921 231.406 88.2921 231.706 88.4921C231.906 88.6921 232.206 88.7921 232.606 88.8921C232.906 88.9921 233.306 88.9921 233.606 88.9921C234.006 88.9921 234.306 88.9921 234.606 88.8921C234.906 88.7921 235.206 88.6921 235.406 88.5921C235.706 88.3921 235.906 88.2921 236.106 87.9921C236.306 87.7921 236.406 87.4921 236.506 87.1921H234.106L234.006 86.1921Z" fill="black"></path><path d="M247.708 90.3923L247.008 88.5923H243.108L242.408 90.3923H240.608L243.908 82.0923H246.208L249.508 90.3923H247.708ZM243.608 87.2923H246.508L245.108 83.5923H245.008L243.608 87.2923Z" fill="black"></path><path d="M254.037 88.9923H259.137V90.3923H252.237V82.0923H254.037V88.9923Z" fill="black"></path><path d="M268.672 85.9924C268.972 86.0924 269.272 86.1924 269.472 86.3924C269.672 86.5924 269.872 86.7924 269.972 87.0924C270.072 87.3924 270.172 87.6924 270.172 88.0924C270.172 88.3924 270.072 88.7924 269.972 89.0924C269.872 89.3924 269.672 89.5924 269.472 89.7924C269.272 89.9924 268.972 90.0924 268.572 90.2924C268.172 90.3924 267.772 90.4924 267.172 90.4924H261.872V82.1924H266.772C267.272 82.1924 267.772 82.2924 268.172 82.3924C268.572 82.4924 268.872 82.5924 269.172 82.7924C269.372 82.9924 269.572 83.1924 269.772 83.4924C269.872 83.7924 269.972 84.0924 269.972 84.3924C269.972 84.7924 269.872 85.1924 269.672 85.4924C269.372 85.6924 269.072 85.8924 268.672 85.9924ZM266.772 83.4924H263.572V85.4924H266.972C267.272 85.4924 267.472 85.4924 267.672 85.3924C267.872 85.2924 267.972 85.1924 268.072 85.0924C268.172 84.8924 268.172 84.7924 268.172 84.5924C268.172 84.3924 268.172 84.2924 268.072 84.1924C267.972 84.0924 267.972 83.9924 267.872 83.8924C267.772 83.7924 267.572 83.6924 267.472 83.6924C267.272 83.4924 267.072 83.4924 266.772 83.4924ZM266.872 88.9924C267.172 88.9924 267.472 88.9924 267.672 88.8924C267.872 88.7924 268.072 88.7924 268.172 88.6924C268.272 88.5924 268.372 88.4924 268.372 88.2924C268.472 88.0924 268.472 87.9924 268.472 87.7924C268.472 87.5924 268.472 87.4924 268.372 87.3924C268.372 87.2924 268.272 87.0924 268.172 86.9924C268.072 86.8924 267.872 86.7924 267.672 86.7924C267.472 86.6924 267.272 86.6924 266.872 86.6924H263.672V88.9924H266.872Z" fill="black"></path><path d="M273.277 90.3923V82.0923H278.777C279.177 82.0923 279.577 82.0923 279.877 82.1923C280.177 82.2923 280.477 82.3923 280.677 82.4923C280.877 82.5923 281.077 82.7923 281.277 82.9923C281.477 83.1923 281.577 83.3923 281.577 83.5923C281.677 83.7923 281.677 84.0923 281.677 84.2923C281.677 84.5923 281.677 84.8923 281.577 85.0923C281.477 85.2923 281.377 85.4923 281.277 85.6923C281.177 85.8923 280.977 85.9923 280.777 86.0923C280.577 86.1923 280.377 86.2923 280.177 86.2923C279.977 86.3923 279.777 86.3923 279.477 86.3923C279.677 86.4923 279.777 86.5923 279.877 86.6923C279.977 86.7923 280.077 86.8923 280.177 87.0923C280.277 87.2923 280.377 87.3923 280.377 87.5923C280.477 87.7923 280.477 87.8923 280.477 88.0923C280.477 88.2923 280.577 88.4923 280.577 88.6923C280.577 88.8923 280.677 89.0923 280.677 89.1923C280.777 89.3923 280.777 89.5923 280.877 89.6923C280.977 89.8923 281.077 89.9923 281.077 90.1923H279.177C279.077 90.0923 278.977 89.8923 278.977 89.6923C278.877 89.4923 278.877 89.2923 278.877 89.0923C278.877 88.8923 278.777 88.6923 278.777 88.4923C278.777 88.2923 278.677 88.0923 278.677 87.8923C278.677 87.6923 278.577 87.4923 278.477 87.3923C278.377 87.1923 278.277 87.0923 278.177 86.9923C278.077 86.8923 277.977 86.7923 277.777 86.6923C277.577 86.5923 277.377 86.5923 277.177 86.5923H274.977V90.0923H273.277V90.3923ZM275.077 85.5923H278.477C278.777 85.5923 279.077 85.5923 279.377 85.4923C279.577 85.3923 279.777 85.2923 279.877 85.0923C279.977 84.8923 279.977 84.6923 279.977 84.4923C279.977 84.2923 279.877 84.0923 279.877 83.8923C279.777 83.6923 279.577 83.5923 279.377 83.4923C279.177 83.3923 278.877 83.3923 278.477 83.3923H275.077V85.5923Z" fill="black"></path><path d="M286.353 88.9923H291.653V90.3923H284.553V82.0923H291.353V83.4923H286.353V85.4923H289.453V86.7923H286.353V88.9923Z" fill="black"></path><path d="M296.399 88.9923H301.699V90.3923H294.599V82.0923H301.399V83.4923H296.399V85.4923H299.499V86.7923H296.399V88.9923Z" fill="#006EFF"></path><path d="M304.138 90.3923V88.9923L309.638 83.5923V83.4923H304.138V82.0923H311.738V83.4923L306.438 88.8923V88.9923H311.938V90.3923H304.138Z" fill="#006EFF"></path><path d="M316.74 88.9923H322.04V90.3923H314.94V82.0923H321.74V83.4923H316.74V85.4923H319.84V86.7923H316.74V88.9923Z" fill="black"></path><path d="M46.4939 45.0327L46.3939 47.0327H18.8939C18.9939 49.0327 19.3939 50.7327 20.2939 52.0327C21.0939 53.3327 22.2939 54.3327 23.6939 55.0327C25.1939 55.7327 26.7939 56.0327 28.6939 56.0327C30.9939 56.0327 32.7939 55.6327 34.1939 54.7327C35.5939 53.8327 36.5939 52.5327 37.1939 50.8327H46.1939C45.3939 53.5327 44.2939 55.7327 42.5939 57.5327C40.9939 59.3327 38.9939 60.7327 36.5939 61.6327C34.1939 62.5327 31.5939 63.0327 28.5939 63.0327C25.5939 63.0327 22.8939 62.6327 20.4939 61.8327C18.0939 61.0327 16.0939 59.9327 14.3939 58.4327C12.6939 56.9327 11.4939 55.1327 10.5939 52.9327C9.69395 50.7327 9.29395 48.3327 9.29395 45.5327C9.29395 42.7327 9.69395 40.3327 10.5939 38.1327C11.4939 35.9327 12.7939 34.1327 14.4939 32.6327C16.1939 31.1327 18.1939 29.9327 20.4939 29.2327C22.7939 28.4327 25.4939 28.0327 28.3939 28.0327C31.0939 28.0327 33.4939 28.3327 35.6939 29.0327C37.8939 29.7327 39.7939 30.7327 41.3939 32.1327C42.9939 33.5327 44.1939 35.3327 45.0939 37.4327C46.0939 39.6327 46.4939 42.1327 46.4939 45.0327ZM28.5939 34.4327C26.6939 34.4327 25.0939 34.7327 23.6939 35.2327C22.2939 35.7327 21.2939 36.6327 20.4939 37.8327C19.6939 39.0327 19.1939 40.5327 18.9939 42.3327H37.0939C37.0939 40.5327 36.6939 39.0327 35.9939 37.9327C35.2939 36.7327 34.2939 35.8327 33.0939 35.3327C31.7939 34.7327 30.2939 34.4327 28.5939 34.4327Z" fill="white"></path><path d="M46.249 62.4329L62.749 36.2329V35.6329H47.549V28.7329H77.149L60.449 54.9329V55.5329H76.649V62.4329H46.249Z" fill="white"></path><path d="M332.032 58V58.576H330.304V62.7998H329.728V58.576H328V58H332.032Z" fill="black" stroke="black" stroke-width="0.3"></path><path d="M337.6 58V62.7998H337.024V59.3439L335.488 60.8799H335.296L333.761 59.3439V62.7998H333.185V58H333.377L335.488 60.3039L337.6 58Z" fill="black" stroke="black" stroke-width="0.3"></path><path d="M326.688 87V87.384H325.536V90.2H325.152V87.384H324V87H326.688Z" fill="black" stroke="black" stroke-width="0.3"></path><path d="M330.4 87V90.2H330.016V87.896L328.992 88.92H328.864L327.84 87.896V90.2H327.456V87H327.584L328.992 88.536L330.4 87Z" fill="black" stroke="black" stroke-width="0.3"></path></svg>